<svg id="my-svg" width="100%" xmlns="http://www.w3.org/2000/svg" xmlns:xlink="http://www.w3.org/1999/xlink" class="flowchart" style="max-width: 2562.01px; background-color: white;" viewBox="0 0 2562.0078125 1320.660400390625" role="graphics-document document" aria-roledescription="flowchart-v2"><style>#my-svg{font-family:"trebuchet ms",verdana,arial,sans-serif;font-size:16px;fill:#333;}@keyframes edge-animation-frame{from{stroke-dashoffset:0;}}@keyframes dash{to{stroke-dashoffset:0;}}#my-svg .edge-animation-slow{stroke-dasharray:9,5!important;stroke-dashoffset:900;animation:dash 50s linear infinite;stroke-linecap:round;}#my-svg .edge-animation-fast{stroke-dasharray:9,5!important;stroke-dashoffset:900;animation:dash 20s linear infinite;stroke-linecap:round;}#my-svg .error-icon{fill:#552222;}#my-svg .error-text{fill:#552222;stroke:#552222;}#my-svg .edge-thickness-normal{stroke-width:1px;}#my-svg .edge-thickness-thick{stroke-width:3.5px;}#my-svg .edge-pattern-solid{stroke-dasharray:0;}#my-svg .edge-thickness-invisible{stroke-width:0;fill:none;}#my-svg .edge-pattern-dashed{stroke-dasharray:3;}#my-svg .edge-pattern-dotted{stroke-dasharray:2;}#my-svg .marker{fill:#333333;stroke:#333333;}#my-svg .marker.cross{stroke:#333333;}#my-svg svg{font-family:"trebuchet ms",verdana,arial,sans-serif;font-size:16px;}#my-svg p{margin:0;}#my-svg .label{font-family:"trebuchet ms",verdana,arial,sans-serif;color:#333;}#my-svg .cluster-label text{fill:#333;}#my-svg .cluster-label span{color:#333;}#my-svg .cluster-label span p{background-color:transparent;}#my-svg .label text,#my-svg span{fill:#333;color:#333;}#my-svg .node rect,#my-svg .node circle,#my-svg .node ellipse,#my-svg .node polygon,#my-svg .node path{fill:#ECECFF;stroke:#9370DB;stroke-width:1px;}#my-svg .rough-node .label text,#my-svg .node .label text,#my-svg .image-shape .label,#my-svg .icon-shape .label{text-anchor:middle;}#my-svg .node .katex path{fill:#000;stroke:#000;stroke-width:1px;}#my-svg .rough-node .label,#my-svg .node .label,#my-svg .image-shape .label,#my-svg .icon-shape .label{text-align:center;}#my-svg .node.clickable{cursor:pointer;}#my-svg .root .anchor path{fill:#333333!important;stroke-width:0;stroke:#333333;}#my-svg .arrowheadPath{fill:#333333;}#my-svg .edgePath .path{stroke:#333333;stroke-width:1px;}#my-svg .flowchart-link{stroke:#333333;fill:none;}#my-svg .edgeLabel{background-color:rgba(232,232,232, 0.8);text-align:center;}#my-svg .edgeLabel p{background-color:rgba(232,232,232, 0.8);}#my-svg .edgeLabel rect{opacity:0.5;background-color:rgba(232,232,232, 0.8);fill:rgba(232,232,232, 0.8);}#my-svg .labelBkg{background-color:rgba(232, 232, 232, 0.5);}#my-svg .cluster rect{fill:#ffffde;stroke:#aaaa33;stroke-width:1px;}#my-svg .cluster text{fill:#333;}#my-svg .cluster span{color:#333;}#my-svg div.mermaidTooltip{position:absolute;text-align:center;max-width:200px;padding:2px;font-family:"trebuchet ms",verdana,arial,sans-serif;font-size:12px;background:hsl(80, 100%, 96.2745098039%);border:1px solid #aaaa33;border-radius:2px;pointer-events:none;z-index:100;}#my-svg .flowchartTitleText{text-anchor:middle;font-size:18px;fill:#333;}#my-svg rect.text{fill:none;stroke-width:0;}#my-svg .icon-shape,#my-svg .image-shape{background-color:rgba(232,232,232, 0.8);text-align:center;}#my-svg .icon-shape p,#my-svg .image-shape p{background-color:rgba(232,232,232, 0.8);padding:2px;}#my-svg .icon-shape .label rect,#my-svg .image-shape .label rect{opacity:0.5;background-color:rgba(232,232,232, 0.8);fill:rgba(232,232,232, 0.8);}#my-svg .label-icon{display:inline-block;height:1em;overflow:visible;vertical-align:-0.125em;}#my-svg .node .label-icon path{fill:currentColor;stroke:revert;stroke-width:revert;}#my-svg .node .neo-node{stroke:#9370DB;}#my-svg [data-look="neo"].node rect,#my-svg [data-look="neo"].cluster rect,#my-svg [data-look="neo"].node polygon{stroke:#9370DB;filter:drop-shadow(1px 2px 2px rgba(185, 185, 185, 1));}#my-svg [data-look="neo"].node path{stroke:#9370DB;stroke-width:1px;}#my-svg [data-look="neo"].node .outer-path{filter:drop-shadow(1px 2px 2px rgba(185, 185, 185, 1));}#my-svg [data-look="neo"].node .neo-line path{stroke:#9370DB;filter:none;}#my-svg [data-look="neo"].node circle{stroke:#9370DB;filter:drop-shadow(1px 2px 2px rgba(185, 185, 185, 1));}#my-svg [data-look="neo"].node circle .state-start{fill:#000000;}#my-svg [data-look="neo"].icon-shape .icon{fill:#9370DB;filter:drop-shadow(1px 2px 2px rgba(185, 185, 185, 1));}#my-svg [data-look="neo"].icon-shape .icon-neo path{stroke:#9370DB;filter:drop-shadow(1px 2px 2px rgba(185, 185, 185, 1));}#my-svg :root{--mermaid-font-family:"trebuchet ms",verdana,arial,sans-serif;}</style><g><marker id="my-svg_flowchart-v2-pointEnd" class="marker flowchart-v2" viewBox="0 0 10 10" refX="5" refY="5" markerUnits="userSpaceOnUse" markerWidth="8" markerHeight="8" orient="auto"><path d="M 0 0 L 10 5 L 0 10 z" class="arrowMarkerPath" style="stroke-width: 1; stroke-dasharray: 1, 0;"/></marker><marker id="my-svg_flowchart-v2-pointStart" class="marker flowchart-v2" viewBox="0 0 10 10" refX="4.5" refY="5" markerUnits="userSpaceOnUse" markerWidth="8" markerHeight="8" orient="auto"><path d="M 0 5 L 10 10 L 10 0 z" class="arrowMarkerPath" style="stroke-width: 1; stroke-dasharray: 1, 0;"/></marker><marker id="my-svg_flowchart-v2-pointEnd-margin" class="marker flowchart-v2" viewBox="0 0 11.5 14" refX="11.5" refY="7" markerUnits="userSpaceOnUse" markerWidth="10.5" markerHeight="14" orient="auto"><path d="M 0 0 L 11.5 7 L 0 14 z" class="arrowMarkerPath" style="stroke-width: 0; stroke-dasharray: 1, 0;"/></marker><marker id="my-svg_flowchart-v2-pointStart-margin" class="marker flowchart-v2" viewBox="0 0 11.5 14" refX="1" refY="7" markerUnits="userSpaceOnUse" markerWidth="11.5" markerHeight="14" orient="auto"><polygon points="0,7 11.5,14 11.5,0" class="arrowMarkerPath" style="stroke-width: 0; stroke-dasharray: 1, 0;"/></marker><marker id="my-svg_flowchart-v2-circleEnd" class="marker flowchart-v2" viewBox="0 0 10 10" refX="11" refY="5" markerUnits="userSpaceOnUse" markerWidth="11" markerHeight="11" orient="auto"><circle cx="5" cy="5" r="5" class="arrowMarkerPath" style="stroke-width: 1; stroke-dasharray: 1, 0;"/></marker><marker id="my-svg_flowchart-v2-circleStart" class="marker flowchart-v2" viewBox="0 0 10 10" refX="-1" refY="5" markerUnits="userSpaceOnUse" markerWidth="11" markerHeight="11" orient="auto"><circle cx="5" cy="5" r="5" class="arrowMarkerPath" style="stroke-width: 1; stroke-dasharray: 1, 0;"/></marker><marker id="my-svg_flowchart-v2-circleEnd-margin" class="marker flowchart-v2" viewBox="0 0 10 10" refY="5" refX="12.25" markerUnits="userSpaceOnUse" markerWidth="14" markerHeight="14" orient="auto"><circle cx="5" cy="5" r="5" class="arrowMarkerPath" style="stroke-width: 0; stroke-dasharray: 1, 0;"/></marker><marker id="my-svg_flowchart-v2-circleStart-margin" class="marker flowchart-v2" viewBox="0 0 10 10" refX="-2" refY="5" markerUnits="userSpaceOnUse" markerWidth="14" markerHeight="14" orient="auto"><circle cx="5" cy="5" r="5" class="arrowMarkerPath" style="stroke-width: 0; stroke-dasharray: 1, 0;"/></marker><marker id="my-svg_flowchart-v2-crossEnd" class="marker cross flowchart-v2" viewBox="0 0 11 11" refX="12" refY="5.2" markerUnits="userSpaceOnUse" markerWidth="11" markerHeight="11" orient="auto"><path d="M 1,1 l 9,9 M 10,1 l -9,9" class="arrowMarkerPath" style="stroke-width: 2; stroke-dasharray: 1, 0;"/></marker><marker id="my-svg_flowchart-v2-crossStart" class="marker cross flowchart-v2" viewBox="0 0 11 11" refX="-1" refY="5.2" markerUnits="userSpaceOnUse" markerWidth="11" markerHeight="11" orient="auto"><path d="M 1,1 l 9,9 M 10,1 l -9,9" class="arrowMarkerPath" style="stroke-width: 2; stroke-dasharray: 1, 0;"/></marker><marker id="my-svg_flowchart-v2-crossEnd-margin" class="marker cross flowchart-v2" viewBox="0 0 15 15" refX="17.7" refY="7.5" markerUnits="userSpaceOnUse" markerWidth="12" markerHeight="12" orient="auto"><path d="M 1,1 L 14,14 M 1,14 L 14,1" class="arrowMarkerPath" style="stroke-width: 2.5;"/></marker><marker id="my-svg_flowchart-v2-crossStart-margin" class="marker cross flowchart-v2" viewBox="0 0 15 15" refX="-3.5" refY="7.5" markerUnits="userSpaceOnUse" markerWidth="12" markerHeight="12" orient="auto"><path d="M 1,1 L 14,14 M 1,14 L 14,1" class="arrowMarkerPath" style="stroke-width: 2.5; stroke-dasharray: 1, 0;"/></marker><g class="root"><g class="clusters"><g class="cluster" id="my-svg-外部服务" data-look="classic"><rect style="" x="8" y="847" width="210" height="244.38636779785156"/><g class="cluster-label" transform="translate(81, 847)"><foreignObject width="64" height="24"><div xmlns="http://www.w3.org/1999/xhtml" style="display: table-cell; white-space: nowrap; line-height: 1.5;"><span class="nodeLabel"><p>外部服务</p></span></div></foreignObject></g></g><g class="cluster" id="my-svg-数据服务器" data-look="classic"><rect style="" x="238" y="847" width="1290.75" height="465.66046142578125"/><g class="cluster-label" transform="translate(843.375, 847)"><foreignObject width="80" height="24"><div xmlns="http://www.w3.org/1999/xhtml" style="display: table-cell; white-space: nowrap; line-height: 1.5;"><span class="nodeLabel"><p>数据服务器</p></span></div></foreignObject></g></g><g class="cluster" id="my-svg-应用服务器" data-look="classic"><rect style="" x="1548.75" y="492" width="1005.2578125" height="599.3863677978516"/><g class="cluster-label" transform="translate(2011.37890625, 492)"><foreignObject width="80" height="24"><div xmlns="http://www.w3.org/1999/xhtml" style="display: table-cell; white-space: nowrap; line-height: 1.5;"><span class="nodeLabel"><p>应用服务器</p></span></div></foreignObject></g></g><g class="cluster" id="my-svg-网络层" data-look="classic"><rect style="" x="1572.9453125" y="186" width="390.5859375" height="256"/><g class="cluster-label" transform="translate(1744.23828125, 186)"><foreignObject width="48" height="24"><div xmlns="http://www.w3.org/1999/xhtml" style="display: table-cell; white-space: nowrap; line-height: 1.5;"><span class="nodeLabel"><p>网络层</p></span></div></foreignObject></g></g><g class="cluster" id="my-svg-客户端" data-look="classic"><rect style="" x="1554.734375" y="8" width="494.609375" height="128"/><g class="cluster-label" transform="translate(1778.0390625, 8)"><foreignObject width="48" height="24"><div xmlns="http://www.w3.org/1999/xhtml" style="display: table-cell; white-space: nowrap; line-height: 1.5;"><span class="nodeLabel"><p>客户端</p></span></div></foreignObject></g></g><g class="cluster" id="my-svg-Redis缓存" data-look="classic"><rect style="" x="258" y="872" width="639.421875" height="415.66046142578125"/><g class="cluster-label" transform="translate(543.0390625, 872)"><foreignObject width="69.34375" height="24"><div xmlns="http://www.w3.org/1999/xhtml" style="display: table-cell; white-space: nowrap; line-height: 1.5;"><span class="nodeLabel"><p>Redis缓存</p></span></div></foreignObject></g></g><g class="cluster" id="my-svg-MySQL数据库" data-look="classic"><rect style="" x="917.421875" y="872" width="591.328125" height="415.66046142578125"/><g class="cluster-label" transform="translate(1166.15625, 872)"><foreignObject width="93.859375" height="24"><div xmlns="http://www.w3.org/1999/xhtml" style="display: table-cell; white-space: nowrap; line-height: 1.5;"><span class="nodeLabel"><p>MySQL数据库</p></span></div></foreignObject></g></g><g class="cluster" id="my-svg-Redis数据结构" data-look="classic"><rect style="" x="278" y="1141.3863677978516" width="599.421875" height="121.27409362792969"/><g class="cluster-label" transform="translate(527.0390625, 1141.3863677978516)"><foreignObject width="101.34375" height="24"><div xmlns="http://www.w3.org/1999/xhtml" style="display: table-cell; white-space: nowrap; line-height: 1.5;"><span class="nodeLabel"><p>Redis数据结构</p></span></div></foreignObject></g></g><g class="cluster" id="my-svg-数据库实例" data-look="classic"><rect style="" x="937.421875" y="1141.3863677978516" width="551.328125" height="121.27409362792969"/><g class="cluster-label" transform="translate(1173.0859375, 1141.3863677978516)"><foreignObject width="80" height="24"><div xmlns="http://www.w3.org/1999/xhtml" style="display: table-cell; white-space: nowrap; line-height: 1.5;"><span class="nodeLabel"><p>数据库实例</p></span></div></foreignObject></g></g><g class="cluster" id="my-svg-subGraph3" data-look="classic"><rect style="" x="1568.75" y="517" width="965.2578125" height="549.3863677978516"/><g class="cluster-label" transform="translate(1976.19140625, 517)"><foreignObject width="150.375" height="24"><div xmlns="http://www.w3.org/1999/xhtml" style="display: table-cell; white-space: nowrap; line-height: 1.5;"><span class="nodeLabel"><p>Spring Boot 应用节点</p></span></div></foreignObject></g></g><g class="cluster" id="my-svg-应用组件" data-look="classic"><rect style="" x="1716.921875" y="670" width="797.0859375" height="371.38636779785156"/><g class="cluster-label" transform="translate(2083.46484375, 670)"><foreignObject width="64" height="24"><div xmlns="http://www.w3.org/1999/xhtml" style="display: table-cell; white-space: nowrap; line-height: 1.5;"><span class="nodeLabel"><p>应用组件</p></span></div></foreignObject></g></g></g><g class="edgePaths"><path d="M1897.95,773L1896.089,779.167C1894.227,785.333,1890.504,797.667,1888.643,810C1886.781,822.333,1886.781,834.667,1886.781,845C1886.781,855.333,1886.781,863.667,1886.781,874.782C1886.781,885.898,1886.781,899.795,1886.781,906.744L1886.781,913.693" id="my-svg-L_App_Security_0" class="edge-thickness-normal edge-pattern-solid edge-thickness-normal edge-pattern-solid flowchart-link" style=";" data-edge="true" data-et="edge" data-id="L_App_Security_0" data-points="W3sieCI6MTg5Ny45NTAwOTI1MTY0NDczLCJ5Ijo3NzN9LHsieCI6MTg4Ni43ODEyNSwieSI6ODEwfSx7IngiOjE4ODYuNzgxMjUsInkiOjg0N30seyJ4IjoxODg2Ljc4MTI1LCJ5Ijo4NzJ9LHsieCI6MTg4Ni43ODEyNSwieSI6OTE3LjY5MzE4Mzg5ODkyNTh9XQ==" data-look="classic" marker-end="url(#my-svg_flowchart-v2-pointEnd)"/><path d="M2019.613,773L2036.988,779.167C2054.364,785.333,2089.116,797.667,2106.491,810C2123.867,822.333,2123.867,834.667,2123.867,845C2123.867,855.333,2123.867,863.667,2123.867,874.782C2123.867,885.898,2123.867,899.795,2123.867,906.744L2123.867,913.693" id="my-svg-L_App_Swagger_0" class="edge-thickness-normal edge-pattern-solid edge-thickness-normal edge-pattern-solid flowchart-link" style=";" data-edge="true" data-et="edge" data-id="L_App_Swagger_0" data-points="W3sieCI6MjAxOS42MTI2MTMwNzU2NTgsInkiOjc3M30seyJ4IjoyMTIzLjg2NzE4NzUsInkiOjgxMH0seyJ4IjoyMTIzLjg2NzE4NzUsInkiOjg0N30seyJ4IjoyMTIzLjg2NzE4NzUsInkiOjg3Mn0seyJ4IjoyMTIzLjg2NzE4NzUsInkiOjkxNy42OTMxODM4OTg5MjU4fV0=" data-look="classic" marker-end="url(#my-svg_flowchart-v2-pointEnd)"/><path d="M2023.027,752.497L2081.732,762.081C2140.438,771.665,2257.848,790.832,2316.553,806.583C2375.258,822.333,2375.258,834.667,2375.258,845C2375.258,855.333,2375.258,863.667,2375.258,874.782C2375.258,885.898,2375.258,899.795,2375.258,906.744L2375.258,913.693" id="my-svg-L_App_Actuator_0" class="edge-thickness-normal edge-pattern-solid edge-thickness-normal edge-pattern-solid flowchart-link" style=";" data-edge="true" data-et="edge" data-id="L_App_Actuator_0" data-points="W3sieCI6MjAyMy4wMjczNDM3NSwieSI6NzUyLjQ5NzMyNzUwNDQ2ODF9LHsieCI6MjM3NS4yNTc4MTI1LCJ5Ijo4MTB9LHsieCI6MjM3NS4yNTc4MTI1LCJ5Ijo4NDd9LHsieCI6MjM3NS4yNTc4MTI1LCJ5Ijo4NzJ9LHsieCI6MjM3NS4yNTc4MTI1LCJ5Ijo5MTcuNjkzMTgzODk4OTI1OH1d" data-look="classic" marker-end="url(#my-svg_flowchart-v2-pointEnd)"/><path d="M1856.408,620L1865.294,624.167C1874.18,628.333,1891.951,636.667,1900.837,645C1909.723,653.333,1909.723,661.667,1909.723,669.333C1909.723,677,1909.723,684,1909.723,687.5L1909.723,691" id="my-svg-L_Tomcat_App_0" class="edge-thickness-normal edge-pattern-solid edge-thickness-normal edge-pattern-solid flowchart-link" style=";" data-edge="true" data-et="edge" data-id="L_Tomcat_App_0" data-points="W3sieCI6MTg1Ni40MDg0NDcyNjU2MjUsInkiOjYyMH0seyJ4IjoxOTA5LjcyMjY1NjI1LCJ5Ijo2NDV9LHsieCI6MTkwOS43MjI2NTYyNSwieSI6NjcwfSx7IngiOjE5MDkuNzIyNjU2MjUsInkiOjY5NX1d" data-look="classic" marker-end="url(#my-svg_flowchart-v2-pointEnd)"/><path d="M1693.414,111L1693.414,115.167C1693.414,119.333,1693.414,127.667,1693.414,136C1693.414,144.333,1693.414,152.667,1693.414,161C1693.414,169.333,1693.414,177.667,1698.091,185.583C1702.768,193.499,1712.121,200.999,1716.798,204.748L1721.475,208.498" id="my-svg-L_Browser_CDN_0" class="edge-thickness-normal edge-pattern-solid edge-thickness-normal edge-pattern-solid flowchart-link" style=";" data-edge="true" data-et="edge" data-id="L_Browser_CDN_0" data-points="W3sieCI6MTY5My40MTQwNjI1LCJ5IjoxMTF9LHsieCI6MTY5My40MTQwNjI1LCJ5IjoxMzZ9LHsieCI6MTY5My40MTQwNjI1LCJ5IjoxNjF9LHsieCI6MTY5My40MTQwNjI1LCJ5IjoxODZ9LHsieCI6MTcyNC41OTUzOTc5NDkyMTg4LCJ5IjoyMTF9XQ==" data-look="classic" marker-end="url(#my-svg_flowchart-v2-pointEnd)"/><path d="M1930.719,111L1930.719,115.167C1930.719,119.333,1930.719,127.667,1930.719,136C1930.719,144.333,1930.719,152.667,1930.719,161C1930.719,169.333,1930.719,177.667,1918.09,186.966C1905.46,196.265,1880.202,206.53,1867.573,211.662L1854.944,216.795" id="my-svg-L_Mobile_CDN_0" class="edge-thickness-normal edge-pattern-solid edge-thickness-normal edge-pattern-solid flowchart-link" style=";" data-edge="true" data-et="edge" data-id="L_Mobile_CDN_0" data-points="W3sieCI6MTkzMC43MTg3NSwieSI6MTExfSx7IngiOjE5MzAuNzE4NzUsInkiOjEzNn0seyJ4IjoxOTMwLjcxODc1LCJ5IjoxNjF9LHsieCI6MTkzMC43MTg3NSwieSI6MTg2fSx7IngiOjE4NTEuMjM4MjgxMjUsInkiOjIxOC4zMDA4MzA5NTYyMTk3OH1d" data-look="classic" marker-end="url(#my-svg_flowchart-v2-pointEnd)"/><path d="M1773.238,289L1773.238,293.167C1773.238,297.333,1773.238,305.667,1773.238,313.333C1773.238,321,1773.238,328,1773.238,331.5L1773.238,335" id="my-svg-L_CDN_HTTPS_0" class="edge-thickness-normal edge-pattern-solid edge-thickness-normal edge-pattern-solid flowchart-link" style=";" data-edge="true" data-et="edge" data-id="L_CDN_HTTPS_0" data-points="W3sieCI6MTc3My4yMzgyODEyNSwieSI6Mjg5fSx7IngiOjE3NzMuMjM4MjgxMjUsInkiOjMxNH0seyJ4IjoxNzczLjIzODI4MTI1LCJ5IjozMzl9XQ==" data-look="classic" marker-end="url(#my-svg_flowchart-v2-pointEnd)"/><path d="M1773.238,417L1773.238,421.167C1773.238,425.333,1773.238,433.667,1773.238,442C1773.238,450.333,1773.238,458.667,1773.238,467C1773.238,475.333,1773.238,483.667,1773.238,492C1773.238,500.333,1773.238,508.667,1773.238,516.333C1773.238,524,1773.238,531,1773.238,534.5L1773.238,538" id="my-svg-L_HTTPS_Tomcat_0" class="edge-thickness-normal edge-pattern-solid edge-thickness-normal edge-pattern-solid flowchart-link" style=";" data-edge="true" data-et="edge" data-id="L_HTTPS_Tomcat_0" data-points="W3sieCI6MTc3My4yMzgyODEyNSwieSI6NDE3fSx7IngiOjE3NzMuMjM4MjgxMjUsInkiOjQ0Mn0seyJ4IjoxNzczLjIzODI4MTI1LCJ5Ijo0Njd9LHsieCI6MTc3My4yMzgyODEyNSwieSI6NDkyfSx7IngiOjE3NzMuMjM4MjgxMjUsInkiOjUxN30seyJ4IjoxNzczLjIzODI4MTI1LCJ5Ijo1NDJ9XQ==" data-look="classic" marker-end="url(#my-svg_flowchart-v2-pointEnd)"/><path d="M1704.048,620L1696.656,624.167C1689.264,628.333,1674.48,636.667,1667.087,645C1659.695,653.333,1659.695,661.667,1659.695,676.5C1659.695,691.333,1659.695,712.667,1659.695,736C1659.695,759.333,1659.695,784.667,1659.695,803.5C1659.695,822.333,1659.695,834.667,1659.695,845C1659.695,855.333,1659.695,863.667,1592.308,880.356C1524.922,897.045,1390.148,922.09,1322.761,934.613L1255.374,947.135" id="my-svg-L_Tomcat_MySQL_0" class="edge-thickness-normal edge-pattern-solid edge-thickness-normal edge-pattern-solid flowchart-link" style=";" data-edge="true" data-et="edge" data-id="L_Tomcat_MySQL_0" data-points="W3sieCI6MTcwNC4wNDgwMzQ2Njc5Njg4LCJ5Ijo2MjB9LHsieCI6MTY1OS42OTUzMTI1LCJ5Ijo2NDV9LHsieCI6MTY1OS42OTUzMTI1LCJ5Ijo2NzB9LHsieCI6MTY1OS42OTUzMTI1LCJ5Ijo3MzR9LHsieCI6MTY1OS42OTUzMTI1LCJ5Ijo4MTB9LHsieCI6MTY1OS42OTUzMTI1LCJ5Ijo4NDd9LHsieCI6MTY1OS42OTUzMTI1LCJ5Ijo4NzJ9LHsieCI6MTI1MS40NDE0MDYyNSwieSI6OTQ3Ljg2NjIxMzUwOTc5Nn1d" data-look="classic" marker-end="url(#my-svg_flowchart-v2-pointEnd)"/><path d="M1869.061,773L1862.631,779.167C1856.202,785.333,1843.343,797.667,1836.914,810C1830.484,822.333,1830.484,834.667,1830.484,845C1830.484,855.333,1830.484,863.667,1629.959,881.39C1429.434,899.113,1028.385,926.226,827.86,939.782L627.335,953.338" id="my-svg-L_App_Redis_0" class="edge-thickness-normal edge-pattern-solid edge-thickness-normal edge-pattern-solid flowchart-link" style=";" data-edge="true" data-et="edge" data-id="L_App_Redis_0" data-points="W3sieCI6MTg2OS4wNjA5MDY2NjExODQyLCJ5Ijo3NzN9LHsieCI6MTgzMC40ODQzNzUsInkiOjgxMH0seyJ4IjoxODMwLjQ4NDM3NSwieSI6ODQ3fSx7IngiOjE4MzAuNDg0Mzc1LCJ5Ijo4NzJ9LHsieCI6NjIzLjM0Mzc1LCJ5Ijo5NTMuNjA4MTk4MTY2MzA5OX1d" data-look="classic" marker-end="url(#my-svg_flowchart-v2-pointEnd)"/><path d="M1830.61,773L1818.101,779.167C1805.592,785.333,1780.573,797.667,1768.064,810C1755.555,822.333,1755.555,834.667,1755.555,845C1755.555,855.333,1755.555,863.667,1494.128,881.313C1232.701,898.959,709.848,925.919,448.421,939.398L186.995,952.878" id="my-svg-L_App_SMTP_0" class="edge-thickness-normal edge-pattern-solid edge-thickness-normal edge-pattern-solid flowchart-link" style=";" data-edge="true" data-et="edge" data-id="L_App_SMTP_0" data-points="W3sieCI6MTgzMC42MTAxNDU5NzAzOTQ4LCJ5Ijo3NzN9LHsieCI6MTc1NS41NTQ2ODc1LCJ5Ijo4MTB9LHsieCI6MTc1NS41NTQ2ODc1LCJ5Ijo4NDd9LHsieCI6MTc1NS41NTQ2ODc1LCJ5Ijo4NzJ9LHsieCI6MTgzLCJ5Ijo5NTMuMDgzODUzMzEyODMyNH1d" data-look="classic" marker-end="url(#my-svg_flowchart-v2-pointEnd)"/><path d="M1156.441,977.042L1131.408,987.766C1106.375,998.49,1056.309,1019.938,1031.275,1034.829C1006.242,1049.72,1006.242,1058.053,1006.242,1066.386C1006.242,1074.72,1006.242,1083.053,1006.242,1091.386C1006.242,1099.72,1006.242,1108.053,1006.242,1116.386C1006.242,1124.72,1006.242,1133.053,1006.242,1141.215C1006.242,1149.376,1006.242,1157.366,1006.242,1161.361L1006.242,1165.356" id="my-svg-L_MySQL_UsersDB_0" class="edge-thickness-normal edge-pattern-solid edge-thickness-normal edge-pattern-solid flowchart-link" style=";" data-edge="true" data-et="edge" data-id="L_MySQL_UsersDB_0" data-points="W3sieCI6MTE1Ni40NDE0MDYyNSwieSI6OTc3LjA0MTkwNDg1MzA4NDd9LHsieCI6MTAwNi4yNDIxODc1LCJ5IjoxMDQxLjM4NjM2Nzc5Nzg1MTZ9LHsieCI6MTAwNi4yNDIxODc1LCJ5IjoxMDY2LjM4NjM2Nzc5Nzg1MTZ9LHsieCI6MTAwNi4yNDIxODc1LCJ5IjoxMDkxLjM4NjM2Nzc5Nzg1MTZ9LHsieCI6MTAwNi4yNDIxODc1LCJ5IjoxMTE2LjM4NjM2Nzc5Nzg1MTZ9LHsieCI6MTAwNi4yNDIxODc1LCJ5IjoxMTQxLjM4NjM2Nzc5Nzg1MTZ9LHsieCI6MTAwNi4yNDIxODc1LCJ5IjoxMTY5LjM1NjI4ODkwOTkxMn1d" data-look="classic" marker-end="url(#my-svg_flowchart-v2-pointEnd)"/><path d="M1156.496,1006.107L1153.184,1011.987C1149.872,1017.867,1143.249,1029.627,1139.937,1039.673C1136.625,1049.72,1136.625,1058.053,1136.625,1066.386C1136.625,1074.72,1136.625,1083.053,1136.625,1091.386C1136.625,1099.72,1136.625,1108.053,1136.625,1116.386C1136.625,1124.72,1136.625,1133.053,1136.625,1140.741C1136.625,1148.429,1136.625,1155.471,1136.625,1158.992L1136.625,1162.513" id="my-svg-L_MySQL_ProductsDB_0" class="edge-thickness-normal edge-pattern-solid edge-thickness-normal edge-pattern-solid flowchart-link" style=";" data-edge="true" data-et="edge" data-id="L_MySQL_ProductsDB_0" data-points="W3sieCI6MTE1Ni40OTU2NjgyMDIyNzcsInkiOjEwMDYuMTA2Nzc0MzM4ODEzfSx7IngiOjExMzYuNjI1LCJ5IjoxMDQxLjM4NjM2Nzc5Nzg1MTZ9LHsieCI6MTEzNi42MjUsInkiOjEwNjYuMzg2MzY3Nzk3ODUxNn0seyJ4IjoxMTM2LjYyNSwieSI6MTA5MS4zODYzNjc3OTc4NTE2fSx7IngiOjExMzYuNjI1LCJ5IjoxMTE2LjM4NjM2Nzc5Nzg1MTZ9LHsieCI6MTEzNi42MjUsInkiOjExNDEuMzg2MzY3Nzk3ODUxNn0seyJ4IjoxMTM2LjYyNSwieSI6MTE2Ni41MTMzODk1ODc0MDIzfV0=" data-look="classic" marker-end="url(#my-svg_flowchart-v2-pointEnd)"/><path d="M1251.387,1006.107L1254.699,1011.987C1258.011,1017.867,1264.634,1029.627,1267.946,1039.673C1271.258,1049.72,1271.258,1058.053,1271.258,1066.386C1271.258,1074.72,1271.258,1083.053,1271.258,1091.386C1271.258,1099.72,1271.258,1108.053,1271.258,1116.386C1271.258,1124.72,1271.258,1133.053,1271.258,1141.043C1271.258,1149.034,1271.258,1156.681,1271.258,1160.504L1271.258,1164.328" id="my-svg-L_MySQL_OrdersDB_0" class="edge-thickness-normal edge-pattern-solid edge-thickness-normal edge-pattern-solid flowchart-link" style=";" data-edge="true" data-et="edge" data-id="L_MySQL_OrdersDB_0" data-points="W3sieCI6MTI1MS4zODcxNDQyOTc3MjMsInkiOjEwMDYuMTA2Nzc0MzM4ODEzfSx7IngiOjEyNzEuMjU3ODEyNSwieSI6MTA0MS4zODYzNjc3OTc4NTE2fSx7IngiOjEyNzEuMjU3ODEyNSwieSI6MTA2Ni4zODYzNjc3OTc4NTE2fSx7IngiOjEyNzEuMjU3ODEyNSwieSI6MTA5MS4zODYzNjc3OTc4NTE2fSx7IngiOjEyNzEuMjU3ODEyNSwieSI6MTExNi4zODYzNjc3OTc4NTE2fSx7IngiOjEyNzEuMjU3ODEyNSwieSI6MTE0MS4zODYzNjc3OTc4NTE2fSx7IngiOjEyNzEuMjU3ODEyNSwieSI6MTE2OC4zMjgwMDI5Mjk2ODc1fV0=" data-look="classic" marker-end="url(#my-svg_flowchart-v2-pointEnd)"/><path d="M1251.441,976.55L1277.291,987.356C1303.141,998.162,1354.84,1019.774,1380.689,1034.747C1406.539,1049.72,1406.539,1058.053,1406.539,1066.386C1406.539,1074.72,1406.539,1083.053,1406.539,1091.386C1406.539,1099.72,1406.539,1108.053,1406.539,1116.386C1406.539,1124.72,1406.539,1133.053,1406.539,1140.72C1406.539,1148.386,1406.539,1155.386,1406.539,1158.886L1406.539,1162.386" id="my-svg-L_MySQL_ChatDB_0" class="edge-thickness-normal edge-pattern-solid edge-thickness-normal edge-pattern-solid flowchart-link" style=";" data-edge="true" data-et="edge" data-id="L_MySQL_ChatDB_0" data-points="W3sieCI6MTI1MS40NDE0MDYyNSwieSI6OTc2LjU0OTkxMDMyNzM2Mzh9LHsieCI6MTQwNi41MzkwNjI1LCJ5IjoxMDQxLjM4NjM2Nzc5Nzg1MTZ9LHsieCI6MTQwNi41MzkwNjI1LCJ5IjoxMDY2LjM4NjM2Nzc5Nzg1MTZ9LHsieCI6MTQwNi41MzkwNjI1LCJ5IjoxMDkxLjM4NjM2Nzc5Nzg1MTZ9LHsieCI6MTQwNi41MzkwNjI1LCJ5IjoxMTE2LjM4NjM2Nzc5Nzg1MTZ9LHsieCI6MTQwNi41MzkwNjI1LCJ5IjoxMTQxLjM4NjM2Nzc5Nzg1MTZ9LHsieCI6MTQwNi41MzkwNjI1LCJ5IjoxMTY2LjM4NjM2Nzc5Nzg1MTZ9XQ==" data-look="classic" marker-end="url(#my-svg_flowchart-v2-pointEnd)"/><path d="M532.078,976.542L507.232,987.349C482.385,998.157,432.693,1019.772,407.846,1034.746C383,1049.72,383,1058.053,383,1066.386C383,1074.72,383,1083.053,383,1091.386C383,1099.72,383,1108.053,383,1116.386C383,1124.72,383,1133.053,383,1142.159C383,1151.265,383,1161.144,383,1166.084L383,1171.023" id="my-svg-L_Redis_CacheData_0" class="edge-thickness-normal edge-pattern-solid edge-thickness-normal edge-pattern-solid flowchart-link" style=";" data-edge="true" data-et="edge" data-id="L_Redis_CacheData_0" data-points="W3sieCI6NTMyLjA3ODEyNSwieSI6OTc2LjU0MjAzMzg0Mjg5ODN9LHsieCI6MzgzLCJ5IjoxMDQxLjM4NjM2Nzc5Nzg1MTZ9LHsieCI6MzgzLCJ5IjoxMDY2LjM4NjM2Nzc5Nzg1MTZ9LHsieCI6MzgzLCJ5IjoxMDkxLjM4NjM2Nzc5Nzg1MTZ9LHsieCI6MzgzLCJ5IjoxMTE2LjM4NjM2Nzc5Nzg1MTZ9LHsieCI6MzgzLCJ5IjoxMTQxLjM4NjM2Nzc5Nzg1MTZ9LHsieCI6MzgzLCJ5IjoxMTc1LjAyMzQxNDYxMTgxNjR9XQ==" data-look="classic" marker-end="url(#my-svg_flowchart-v2-pointEnd)"/><path d="M577.711,1016.018L577.711,1020.246C577.711,1024.474,577.711,1032.93,577.711,1041.325C577.711,1049.72,577.711,1058.053,577.711,1066.386C577.711,1074.72,577.711,1083.053,577.711,1091.386C577.711,1099.72,577.711,1108.053,577.711,1116.386C577.711,1124.72,577.711,1133.053,577.711,1142.159C577.711,1151.265,577.711,1161.144,577.711,1166.084L577.711,1171.023" id="my-svg-L_Redis_TokenBlacklist_0" class="edge-thickness-normal edge-pattern-solid edge-thickness-normal edge-pattern-solid flowchart-link" style=";" data-edge="true" data-et="edge" data-id="L_Redis_TokenBlacklist_0" data-points="W3sieCI6NTc3LjcxMDkzNzUsInkiOjEwMTYuMDE4NDUxNjkwNjczOH0seyJ4Ijo1NzcuNzEwOTM3NSwieSI6MTA0MS4zODYzNjc3OTc4NTE2fSx7IngiOjU3Ny43MTA5Mzc1LCJ5IjoxMDY2LjM4NjM2Nzc5Nzg1MTZ9LHsieCI6NTc3LjcxMDkzNzUsInkiOjEwOTEuMzg2MzY3Nzk3ODUxNn0seyJ4Ijo1NzcuNzEwOTM3NSwieSI6MTExNi4zODYzNjc3OTc4NTE2fSx7IngiOjU3Ny43MTA5Mzc1LCJ5IjoxMTQxLjM4NjM2Nzc5Nzg1MTZ9LHsieCI6NTc3LjcxMDkzNzUsInkiOjExNzUuMDIzNDE0NjExODE2NH1d" data-look="classic" marker-end="url(#my-svg_flowchart-v2-pointEnd)"/><path d="M623.344,976.542L648.19,987.349C673.036,998.157,722.729,1019.772,747.576,1034.746C772.422,1049.72,772.422,1058.053,772.422,1066.386C772.422,1074.72,772.422,1083.053,772.422,1091.386C772.422,1099.72,772.422,1108.053,772.422,1116.386C772.422,1124.72,772.422,1133.053,772.422,1142.159C772.422,1151.265,772.422,1161.144,772.422,1166.084L772.422,1171.023" id="my-svg-L_Redis_VerifyCodes_0" class="edge-thickness-normal edge-pattern-solid edge-thickness-normal edge-pattern-solid flowchart-link" style=";" data-edge="true" data-et="edge" data-id="L_Redis_VerifyCodes_0" data-points="W3sieCI6NjIzLjM0Mzc1LCJ5Ijo5NzYuNTQyMDMzODQyODk4M30seyJ4Ijo3NzIuNDIxODc1LCJ5IjoxMDQxLjM4NjM2Nzc5Nzg1MTZ9LHsieCI6NzcyLjQyMTg3NSwieSI6MTA2Ni4zODYzNjc3OTc4NTE2fSx7IngiOjc3Mi40MjE4NzUsInkiOjEwOTEuMzg2MzY3Nzk3ODUxNn0seyJ4Ijo3NzIuNDIxODc1LCJ5IjoxMTE2LjM4NjM2Nzc5Nzg1MTZ9LHsieCI6NzcyLjQyMTg3NSwieSI6MTE0MS4zODYzNjc3OTc4NTE2fSx7IngiOjc3Mi40MjE4NzUsInkiOjExNzUuMDIzNDE0NjExODE2NH1d" data-look="classic" marker-end="url(#my-svg_flowchart-v2-pointEnd)"/></g><g class="edgeLabels"><g class="edgeLabel"><g class="label" data-id="L_App_Security_0" transform="translate(0, 0)"><foreignObject width="0" height="0"><div xmlns="http://www.w3.org/1999/xhtml" class="labelBkg" style="display: table-cell; white-space: nowrap; line-height: 1.5; max-width: 200px; text-align: center;"><span class="edgeLabel"></span></div></foreignObject></g></g><g class="edgeLabel"><g class="label" data-id="L_App_Swagger_0" transform="translate(0, 0)"><foreignObject width="0" height="0"><div xmlns="http://www.w3.org/1999/xhtml" class="labelBkg" style="display: table-cell; white-space: nowrap; line-height: 1.5; max-width: 200px; text-align: center;"><span class="edgeLabel"></span></div></foreignObject></g></g><g class="edgeLabel"><g class="label" data-id="L_App_Actuator_0" transform="translate(0, 0)"><foreignObject width="0" height="0"><div xmlns="http://www.w3.org/1999/xhtml" class="labelBkg" style="display: table-cell; white-space: nowrap; line-height: 1.5; max-width: 200px; text-align: center;"><span class="edgeLabel"></span></div></foreignObject></g></g><g class="edgeLabel"><g class="label" data-id="L_Tomcat_App_0" transform="translate(0, 0)"><foreignObject width="0" height="0"><div xmlns="http://www.w3.org/1999/xhtml" class="labelBkg" style="display: table-cell; white-space: nowrap; line-height: 1.5; max-width: 200px; text-align: center;"><span class="edgeLabel"></span></div></foreignObject></g></g><g class="edgeLabel"><g class="label" data-id="L_Browser_CDN_0" transform="translate(0, 0)"><foreignObject width="0" height="0"><div xmlns="http://www.w3.org/1999/xhtml" class="labelBkg" style="display: table-cell; white-space: nowrap; line-height: 1.5; max-width: 200px; text-align: center;"><span class="edgeLabel"></span></div></foreignObject></g></g><g class="edgeLabel"><g class="label" data-id="L_Mobile_CDN_0" transform="translate(0, 0)"><foreignObject width="0" height="0"><div xmlns="http://www.w3.org/1999/xhtml" class="labelBkg" style="display: table-cell; white-space: nowrap; line-height: 1.5; max-width: 200px; text-align: center;"><span class="edgeLabel"></span></div></foreignObject></g></g><g class="edgeLabel"><g class="label" data-id="L_CDN_HTTPS_0" transform="translate(0, 0)"><foreignObject width="0" height="0"><div xmlns="http://www.w3.org/1999/xhtml" class="labelBkg" style="display: table-cell; white-space: nowrap; line-height: 1.5; max-width: 200px; text-align: center;"><span class="edgeLabel"></span></div></foreignObject></g></g><g class="edgeLabel"><g class="label" data-id="L_HTTPS_Tomcat_0" transform="translate(0, 0)"><foreignObject width="0" height="0"><div xmlns="http://www.w3.org/1999/xhtml" class="labelBkg" style="display: table-cell; white-space: nowrap; line-height: 1.5; max-width: 200px; text-align: center;"><span class="edgeLabel"></span></div></foreignObject></g></g><g class="edgeLabel" transform="translate(1659.6953125, 734)"><g class="label" data-id="L_Tomcat_MySQL_0" transform="translate(-37.2265625, -12)"><foreignObject width="74.453125" height="24"><div xmlns="http://www.w3.org/1999/xhtml" class="labelBkg" style="display: table-cell; white-space: nowrap; line-height: 1.5; max-width: 200px; text-align: center;"><span class="edgeLabel"><p>JDBC 3306</p></span></div></foreignObject></g></g><g class="edgeLabel" transform="translate(1830.484375, 810)"><g class="label" data-id="L_App_Redis_0" transform="translate(-36.296875, -12)"><foreignObject width="72.59375" height="24"><div xmlns="http://www.w3.org/1999/xhtml" class="labelBkg" style="display: table-cell; white-space: nowrap; line-height: 1.5; max-width: 200px; text-align: center;"><span class="edgeLabel"><p>RESP 6379</p></span></div></foreignObject></g></g><g class="edgeLabel" transform="translate(1755.5546875, 810)"><g class="label" data-id="L_App_SMTP_0" transform="translate(-18.6328125, -12)"><foreignObject width="37.265625" height="24"><div xmlns="http://www.w3.org/1999/xhtml" class="labelBkg" style="display: table-cell; white-space: nowrap; line-height: 1.5; max-width: 200px; text-align: center;"><span class="edgeLabel"><p>SMTP</p></span></div></foreignObject></g></g><g class="edgeLabel"><g class="label" data-id="L_MySQL_UsersDB_0" transform="translate(0, 0)"><foreignObject width="0" height="0"><div xmlns="http://www.w3.org/1999/xhtml" class="labelBkg" style="display: table-cell; white-space: nowrap; line-height: 1.5; max-width: 200px; text-align: center;"><span class="edgeLabel"></span></div></foreignObject></g></g><g class="edgeLabel"><g class="label" data-id="L_MySQL_ProductsDB_0" transform="translate(0, 0)"><foreignObject width="0" height="0"><div xmlns="http://www.w3.org/1999/xhtml" class="labelBkg" style="display: table-cell; white-space: nowrap; line-height: 1.5; max-width: 200px; text-align: center;"><span class="edgeLabel"></span></div></foreignObject></g></g><g class="edgeLabel"><g class="label" data-id="L_MySQL_OrdersDB_0" transform="translate(0, 0)"><foreignObject width="0" height="0"><div xmlns="http://www.w3.org/1999/xhtml" class="labelBkg" style="display: table-cell; white-space: nowrap; line-height: 1.5; max-width: 200px; text-align: center;"><span class="edgeLabel"></span></div></foreignObject></g></g><g class="edgeLabel"><g class="label" data-id="L_MySQL_ChatDB_0" transform="translate(0, 0)"><foreignObject width="0" height="0"><div xmlns="http://www.w3.org/1999/xhtml" class="labelBkg" style="display: table-cell; white-space: nowrap; line-height: 1.5; max-width: 200px; text-align: center;"><span class="edgeLabel"></span></div></foreignObject></g></g><g class="edgeLabel"><g class="label" data-id="L_Redis_CacheData_0" transform="translate(0, 0)"><foreignObject width="0" height="0"><div xmlns="http://www.w3.org/1999/xhtml" class="labelBkg" style="display: table-cell; white-space: nowrap; line-height: 1.5; max-width: 200px; text-align: center;"><span class="edgeLabel"></span></div></foreignObject></g></g><g class="edgeLabel"><g class="label" data-id="L_Redis_TokenBlacklist_0" transform="translate(0, 0)"><foreignObject width="0" height="0"><div xmlns="http://www.w3.org/1999/xhtml" class="labelBkg" style="display: table-cell; white-space: nowrap; line-height: 1.5; max-width: 200px; text-align: center;"><span class="edgeLabel"></span></div></foreignObject></g></g><g class="edgeLabel"><g class="label" data-id="L_Redis_VerifyCodes_0" transform="translate(0, 0)"><foreignObject width="0" height="0"><div xmlns="http://www.w3.org/1999/xhtml" class="labelBkg" style="display: table-cell; white-space: nowrap; line-height: 1.5; max-width: 200px; text-align: center;"><span class="edgeLabel"></span></div></foreignObject></g></g></g><g class="nodes"><g class="node default" id="my-svg-flowchart-Browser-0" data-look="classic" transform="translate(1693.4140625, 72)"><rect class="basic label-container" style="" x="-103.6796875" y="-39" width="207.359375" height="78"/><g class="label" style="" transform="translate(-73.6796875, -24)"><rect/><foreignObject width="147.359375" height="48"><div xmlns="http://www.w3.org/1999/xhtml" style="display: table-cell; white-space: nowrap; line-height: 1.5; max-width: 200px; text-align: center;"><span class="nodeLabel"><p>浏览器客户端<br />Chrome/Edge/Safari</p></span></div></foreignObject></g></g><g class="node default" id="my-svg-flowchart-Mobile-1" data-look="classic" transform="translate(1930.71875, 72)"><rect class="basic label-container" style="" x="-83.625" y="-39" width="167.25" height="78"/><g class="label" style="" transform="translate(-53.625, -24)"><rect/><foreignObject width="107.25" height="48"><div xmlns="http://www.w3.org/1999/xhtml" style="display: table-cell; white-space: nowrap; line-height: 1.5; max-width: 200px; text-align: center;"><span class="nodeLabel"><p>移动端浏览器<br />H5/微信小程序</p></span></div></foreignObject></g></g><g class="node default" id="my-svg-flowchart-CDN-2" data-look="classic" transform="translate(1773.23828125, 250)"><rect class="basic label-container" style="" x="-78" y="-39" width="156" height="78"/><g class="label" style="" transform="translate(-48, -24)"><rect/><foreignObject width="96" height="48"><div xmlns="http://www.w3.org/1999/xhtml" style="display: table-cell; white-space: nowrap; line-height: 1.5; max-width: 200px; text-align: center;"><span class="nodeLabel"><p>CDN<br />静态资源加速</p></span></div></foreignObject></g></g><g class="node default" id="my-svg-flowchart-HTTPS-3" data-look="classic" transform="translate(1773.23828125, 378)"><rect class="basic label-container" style="" x="-88.28125" y="-39" width="176.5625" height="78"/><g class="label" style="" transform="translate(-58.28125, -24)"><rect/><foreignObject width="116.5625" height="48"><div xmlns="http://www.w3.org/1999/xhtml" style="display: table-cell; white-space: nowrap; line-height: 1.5; max-width: 200px; text-align: center;"><span class="nodeLabel"><p>HTTPS<br />TLS 1.3加密传输</p></span></div></foreignObject></g></g><g class="node default" id="my-svg-flowchart-Tomcat-4" data-look="classic" transform="translate(1773.23828125, 581)"><rect class="basic label-container" style="" x="-89.6640625" y="-39" width="179.328125" height="78"/><g class="label" style="" transform="translate(-59.6640625, -24)"><rect/><foreignObject width="119.328125" height="48"><div xmlns="http://www.w3.org/1999/xhtml" style="display: table-cell; white-space: nowrap; line-height: 1.5; max-width: 200px; text-align: center;"><span class="nodeLabel"><p>内嵌Tomcat 10.x<br />端口: 8080</p></span></div></foreignObject></g></g><g class="node default" id="my-svg-flowchart-App-5" data-look="classic" transform="translate(1909.72265625, 734)"><rect class="basic label-container" style="" x="-113.3046875" y="-39" width="226.609375" height="78"/><g class="label" style="" transform="translate(-83.3046875, -24)"><rect/><foreignObject width="166.609375" height="48"><div xmlns="http://www.w3.org/1999/xhtml" style="display: table-cell; white-space: nowrap; line-height: 1.5; max-width: 200px; text-align: center;"><span class="nodeLabel"><p>Spring Boot Application<br />Java 17 LTS</p></span></div></foreignObject></g></g><g class="node default" id="my-svg-flowchart-Security-6" data-look="classic" transform="translate(1886.78125, 956.6931838989258)"><rect class="basic label-container" style="" x="-89.4453125" y="-39" width="178.890625" height="78"/><g class="label" style="" transform="translate(-59.4453125, -24)"><rect/><foreignObject width="118.890625" height="48"><div xmlns="http://www.w3.org/1999/xhtml" style="display: table-cell; white-space: nowrap; line-height: 1.5; max-width: 200px; text-align: center;"><span class="nodeLabel"><p>Spring Security<br />JWT Filter Chain</p></span></div></foreignObject></g></g><g class="node default" id="my-svg-flowchart-Swagger-7" data-look="classic" transform="translate(2123.8671875, 956.6931838989258)"><rect class="basic label-container" style="" x="-97.640625" y="-39" width="195.28125" height="78"/><g class="label" style="" transform="translate(-67.640625, -24)"><rect/><foreignObject width="135.28125" height="48"><div xmlns="http://www.w3.org/1999/xhtml" style="display: table-cell; white-space: nowrap; line-height: 1.5; max-width: 200px; text-align: center;"><span class="nodeLabel"><p>SpringDoc OpenAPI<br />API文档生成</p></span></div></foreignObject></g></g><g class="node default" id="my-svg-flowchart-Actuator-8" data-look="classic" transform="translate(2375.2578125, 956.6931838989258)"><rect class="basic label-container" style="" x="-103.75" y="-39" width="207.5" height="78"/><g class="label" style="" transform="translate(-73.75, -24)"><rect/><foreignObject width="147.5" height="48"><div xmlns="http://www.w3.org/1999/xhtml" style="display: table-cell; white-space: nowrap; line-height: 1.5; max-width: 200px; text-align: center;"><span class="nodeLabel"><p>Spring Boot Actuator<br />健康检查与监控</p></span></div></foreignObject></g></g><g class="node default" id="my-svg-flowchart-MySQL-17" data-look="classic" transform="translate(1203.94140625, 956.6931838989258)"><path d="M0,10.795454545454545 a47.5,10.795454545454545 0,0,0 95,0 a47.5,10.795454545454545 0,0,0 -95,0 l0,97.79545454545455 a47.5,10.795454545454545 0,0,0 95,0 l0,-97.79545454545455" class="basic label-container outer-path" style="" transform="translate(-47.5, -59.69318181818182)"/><g class="label" style="" transform="translate(-40, -26)"><rect/><foreignObject width="80" height="72"><div xmlns="http://www.w3.org/1999/xhtml" style="display: table-cell; white-space: nowrap; line-height: 1.5; max-width: 200px; text-align: center;"><span class="nodeLabel"><p>MySQL 8.x<br />数据库服务<br />端口: 3306</p></span></div></foreignObject></g></g><g class="node default" id="my-svg-flowchart-UsersDB-18" data-look="classic" transform="translate(1006.2421875, 1202.0234146118164)"><path d="M0,8.778084191743046 a33.8203125,8.778084191743046 0,0,0 67.640625,0 a33.8203125,8.778084191743046 0,0,0 -67.640625,0 l0,47.77808419174305 a33.8203125,8.778084191743046 0,0,0 67.640625,0 l0,-47.77808419174305" class="basic label-container outer-path" style="" transform="translate(-33.8203125, -32.66712628761457)"/><g class="label" style="" transform="translate(-26.3203125, -2)"><rect/><foreignObject width="52.640625" height="24"><div xmlns="http://www.w3.org/1999/xhtml" style="display: table-cell; white-space: nowrap; line-height: 1.5; max-width: 200px; text-align: center;"><span class="nodeLabel"><p>users表</p></span></div></foreignObject></g></g><g class="node default" id="my-svg-flowchart-ProductsDB-19" data-look="classic" transform="translate(1136.625, 1202.0234146118164)"><path d="M0,10.673352435530086 a46.5625,10.673352435530086 0,0,0 93.125,0 a46.5625,10.673352435530086 0,0,0 -93.125,0 l0,49.673352435530084 a46.5625,10.673352435530086 0,0,0 93.125,0 l0,-49.673352435530084" class="basic label-container outer-path" style="" transform="translate(-46.5625, -35.51002865329513)"/><g class="label" style="" transform="translate(-39.0625, -2)"><rect/><foreignObject width="78.125" height="24"><div xmlns="http://www.w3.org/1999/xhtml" style="display: table-cell; white-space: nowrap; line-height: 1.5; max-width: 200px; text-align: center;"><span class="nodeLabel"><p>products表</p></span></div></foreignObject></g></g><g class="node default" id="my-svg-flowchart-OrdersDB-20" data-look="classic" transform="translate(1271.2578125, 1202.0234146118164)"><path d="M0,9.463605997048086 a38.0703125,9.463605997048086 0,0,0 76.140625,0 a38.0703125,9.463605997048086 0,0,0 -76.140625,0 l0,48.463605997048084 a38.0703125,9.463605997048086 0,0,0 76.140625,0 l0,-48.463605997048084" class="basic label-container outer-path" style="" transform="translate(-38.0703125, -33.69540899557213)"/><g class="label" style="" transform="translate(-30.5703125, -2)"><rect/><foreignObject width="61.140625" height="24"><div xmlns="http://www.w3.org/1999/xhtml" style="display: table-cell; white-space: nowrap; line-height: 1.5; max-width: 200px; text-align: center;"><span class="nodeLabel"><p>orders表</p></span></div></foreignObject></g></g><g class="node default" id="my-svg-flowchart-ChatDB-21" data-look="classic" transform="translate(1406.5390625, 1202.0234146118164)"><path d="M0,10.75802891120131 a47.2109375,10.75802891120131 0,0,0 94.421875,0 a47.2109375,10.75802891120131 0,0,0 -94.421875,0 l0,49.75802891120131 a47.2109375,10.75802891120131 0,0,0 94.421875,0 l0,-49.75802891120131" class="basic label-container outer-path" style="" transform="translate(-47.2109375, -35.63704336680196)"/><g class="label" style="" transform="translate(-39.7109375, -2)"><rect/><foreignObject width="79.421875" height="24"><div xmlns="http://www.w3.org/1999/xhtml" style="display: table-cell; white-space: nowrap; line-height: 1.5; max-width: 200px; text-align: center;"><span class="nodeLabel"><p>chat相关表</p></span></div></foreignObject></g></g><g class="node default" id="my-svg-flowchart-Redis-22" data-look="classic" transform="translate(577.7109375, 956.6931838989258)"><path d="M0,10.550177010331623 a45.6328125,10.550177010331623 0,0,0 91.265625,0 a45.6328125,10.550177010331623 0,0,0 -91.265625,0 l0,97.55017701033162 a45.6328125,10.550177010331623 0,0,0 91.265625,0 l0,-97.55017701033162" class="basic label-container outer-path" style="" transform="translate(-45.6328125, -59.325265515497435)"/><g class="label" style="" transform="translate(-38.1328125, -26)"><rect/><foreignObject width="76.265625" height="72"><div xmlns="http://www.w3.org/1999/xhtml" style="display: table-cell; white-space: nowrap; line-height: 1.5; max-width: 200px; text-align: center;"><span class="nodeLabel"><p>Redis 7.x<br />缓存服务<br />端口: 6379</p></span></div></foreignObject></g></g><g class="node default" id="my-svg-flowchart-CacheData-23" data-look="classic" transform="translate(383, 1202.0234146118164)"><rect class="basic label-container" style="" x="-70" y="-27" width="140" height="54"/><g class="label" style="" transform="translate(-40, -12)"><rect/><foreignObject width="80" height="24"><div xmlns="http://www.w3.org/1999/xhtml" style="display: table-cell; white-space: nowrap; line-height: 1.5; max-width: 200px; text-align: center;"><span class="nodeLabel"><p>分类树缓存</p></span></div></foreignObject></g></g><g class="node default" id="my-svg-flowchart-TokenBlacklist-24" data-look="classic" transform="translate(577.7109375, 1202.0234146118164)"><rect class="basic label-container" style="" x="-74.7109375" y="-27" width="149.421875" height="54"/><g class="label" style="" transform="translate(-44.7109375, -12)"><rect/><foreignObject width="89.421875" height="24"><div xmlns="http://www.w3.org/1999/xhtml" style="display: table-cell; white-space: nowrap; line-height: 1.5; max-width: 200px; text-align: center;"><span class="nodeLabel"><p>Token黑名单</p></span></div></foreignObject></g></g><g class="node default" id="my-svg-flowchart-VerifyCodes-25" data-look="classic" transform="translate(772.421875, 1202.0234146118164)"><rect class="basic label-container" style="" x="-70" y="-27" width="140" height="54"/><g class="label" style="" transform="translate(-40, -12)"><rect/><foreignObject width="80" height="24"><div xmlns="http://www.w3.org/1999/xhtml" style="display: table-cell; white-space: nowrap; line-height: 1.5; max-width: 200px; text-align: center;"><span class="nodeLabel"><p>验证码缓存</p></span></div></foreignObject></g></g><g class="node default" id="my-svg-flowchart-SMTP-26" data-look="classic" transform="translate(113, 956.6931838989258)"><rect class="basic label-container" style="" x="-70" y="-39" width="140" height="78"/><g class="label" style="" transform="translate(-40, -24)"><rect/><foreignObject width="80" height="48"><div xmlns="http://www.w3.org/1999/xhtml" style="display: table-cell; white-space: nowrap; line-height: 1.5; max-width: 200px; text-align: center;"><span class="nodeLabel"><p>邮件服务器<br />SMTP服务</p></span></div></foreignObject></g></g></g></g></g><defs><filter id="my-svg-drop-shadow" height="130%" width="130%"><feDropShadow dx="4" dy="4" stdDeviation="0" flood-opacity="0.06" flood-color="#000000"/></filter></defs><defs><filter id="my-svg-drop-shadow-small" height="150%" width="150%"><feDropShadow dx="2" dy="2" stdDeviation="0" flood-opacity="0.06" flood-color="#000000"/></filter></defs></svg>